<?xml version="1.0" encoding="utf-8"?>
<!-- Generator: Adobe Illustrator 16.0.0, SVG Export Plug-In . SVG Version: 6.00 Build 0)  -->
<!DOCTYPE svg PUBLIC "-//W3C//DTD SVG 1.1//EN" "http://www.w3.org/Graphics/SVG/1.1/DTD/svg11.dtd">
<svg version="1.1" id="Layer_1" xmlns="http://www.w3.org/2000/svg" xmlns:xlink="http://www.w3.org/1999/xlink" x="0px" y="0px"
	 width="90px" height="28px" viewBox="0 0 90 28" enable-background="new 0 0 90 28" xml:space="preserve">
<g>
	<g>
		<path d="M58.495,11.763l-0.219,0.273c-0.629,0.733-1.549,1.101-2.762,1.101c-1.076,0-1.92-0.356-2.533-1.07
			c-0.612-0.713-0.926-1.721-0.939-3.024V7.087c0-1.395,0.279-2.439,0.838-3.134c0.558-0.695,1.393-1.043,2.505-1.043
			c0.948,0,1.689,0.264,2.226,0.789c0.535,0.527,0.83,1.28,0.885,2.26h-1.251c-0.05-0.62-0.222-1.104-0.517-1.453
			c-0.293-0.348-0.738-0.522-1.336-0.522c-0.715,0-1.24,0.233-1.572,0.7c-0.332,0.468-0.506,1.214-0.52,2.239v2.03
			c0,1.003,0.191,1.771,0.574,2.307c0.383,0.536,0.932,0.804,1.647,0.804c0.675,0,1.187-0.163,1.538-0.49l0.185-0.17V9.117h-1.818
			V8.044h3.069V11.763z"/>
		<path d="M63.547,8.974h-1.75V13h-1.258V3.047h2.789c0.976,0,1.714,0.254,2.215,0.762c0.501,0.509,0.752,1.253,0.752,2.232
			c0,0.615-0.136,1.152-0.407,1.609c-0.271,0.459-0.654,0.804-1.151,1.036l1.928,4.231V13h-1.347L63.547,8.974z M61.797,7.9h1.518
			c0.524,0,0.942-0.169,1.255-0.507c0.312-0.338,0.468-0.79,0.468-1.356c0-1.277-0.579-1.917-1.736-1.917h-1.504V7.9z"/>
		<path d="M72.741,8.399h-3.521v3.527h4.102V13H67.97V3.047h5.284V4.12h-4.033v3.206h3.521V8.399z"/>
		<path d="M79.563,10.396H76.2L75.428,13h-1.285l3.206-9.953h1.073L81.635,13H80.35L79.563,10.396z M76.528,9.322h2.714l-1.36-4.525
			L76.528,9.322z"/>
		<path d="M88.806,4.12h-2.618V13h-1.251V4.12h-2.611V3.047h6.48V4.12z"/>
	</g>
	<g>
		<path d="M51.994,26v-9.953h3.076c1.039,0,1.829,0.231,2.368,0.693c0.541,0.463,0.811,1.141,0.811,2.034
			c0,0.506-0.111,0.941-0.335,1.306s-0.528,0.631-0.916,0.8c0.446,0.128,0.79,0.384,1.032,0.769c0.242,0.386,0.362,0.86,0.362,1.426
			c0,0.966-0.266,1.695-0.796,2.188C57.065,25.754,56.296,26,55.289,26H51.994z M54.004,20.21h1.046
			c0.789,0,1.183-0.408,1.183-1.224c0-0.451-0.091-0.774-0.273-0.971s-0.479-0.294-0.889-0.294h-1.066V20.21z M54.004,21.673v2.659
			h1.285c0.36,0,0.634-0.111,0.82-0.335s0.28-0.54,0.28-0.95c0-0.894-0.324-1.352-0.971-1.374H54.004z"/>
		<path d="M65.985,23.963h-2.74L62.712,26h-2.127l3.111-9.953h1.838L68.665,26h-2.146L65.985,23.963z M63.683,22.288h1.859
			l-0.93-3.548L63.683,22.288z"/>
		<path d="M77.94,26h-2.01l-2.939-6.528V26h-2.01v-9.953h2.01l2.945,6.535v-6.535h2.004V26z"/>
		<path d="M83.742,22.158l-0.793,0.998V26h-2.01v-9.953h2.01v4.341l0.636-1.073l1.853-3.268h2.461l-2.851,4.375L87.946,26h-2.386
			L83.742,22.158z"/>
	</g>
	<g>
		<path d="M33,1c-3.646,0-7.039,1.509-9.496,4.159C21.129,2.607,17.752,1,14,1C6.832,1,1,6.832,1,14.001C1,21.169,6.832,27,14,27
			c3.752,0,7.128-1.607,9.503-4.158C25.959,25.492,29.354,27,33,27c7.168,0,13-5.831,13-12.999C46,6.832,40.168,1,33,1z M21,22.479
			V21h-2v2h1.305c-0.994,0.698-2.107,1.233-3.305,1.573V23h-2v1.949C14.67,24.979,14.338,25,14,25c-1.801,0-3.498-0.443-5-1.214V23
			H7.695c-1.462-1.027-2.66-2.4-3.481-4H5v-2H3.426c-0.184-0.646-0.313-1.312-0.375-2H5v-2H3.051c0.062-0.688,0.192-1.354,0.376-2H5
			V9H4.214c0.821-1.6,2.019-2.973,3.481-4H9V4.215C10.502,3.443,12.199,3,14,3c0.338,0,0.67,0.021,1,0.051V5h2V3.427
			c1.197,0.34,2.311,0.875,3.305,1.573H19v2h2V5.521c1.695,1.402,2.956,3.307,3.573,5.479H23v2h1.949
			C24.979,13.33,25,13.663,25,14.001c0,0.337-0.021,0.669-0.051,0.999H23v2h1.574C23.957,19.172,22.695,21.076,21,22.479z M33,25
			c-3.182,0-6.131-1.361-8.223-3.736C26.18,19.188,27,16.688,27,14.001s-0.82-5.188-2.223-7.263C26.871,4.362,29.82,3,33,3
			c6.065,0,11,4.935,11,11.001C44,20.065,39.065,25,33,25z"/>
		<rect x="7" y="11" width="2" height="2"/>
		<rect x="7" y="15" width="2" height="2"/>
		<rect x="11" y="17" width="2" height="2"/>
		<rect x="11" y="21" width="2" height="2"/>
		<rect x="11" y="5" width="2" height="2"/>
		<rect x="11" y="13" width="2" height="2"/>
		<rect x="11" y="9" width="2" height="2"/>
		<rect x="19" y="17" width="2" height="2"/>
		<rect x="19" y="13" width="2" height="2"/>
		<rect x="19" y="9" width="2" height="2"/>
		<rect x="7" y="19" width="2" height="2"/>
		<rect x="7" y="7" width="2" height="2"/>
		<rect x="15" y="11" width="2" height="2"/>
		<rect x="15" y="15" width="2" height="2"/>
		<rect x="15" y="19" width="2" height="2"/>
		<rect x="15" y="7" width="2" height="2"/>
	</g>
</g>
</svg>
