<?xml version="1.0" encoding="utf-8"?>
<!-- Generator: Adobe Illustrator 16.0.0, SVG Export Plug-In . SVG Version: 6.00 Build 0)  -->
<!DOCTYPE svg PUBLIC "-//W3C//DTD SVG 1.1//EN" "http://www.w3.org/Graphics/SVG/1.1/DTD/svg11.dtd">
<svg version="1.1" id="Layer_1" xmlns="http://www.w3.org/2000/svg" xmlns:xlink="http://www.w3.org/1999/xlink" x="0px" y="0px"
	 width="28px" height="28px" viewBox="0 0 28 28" enable-background="new 0 0 28 28" xml:space="preserve">
<g>
	<path d="M2,4.009C2,3.452,2.443,3,3.009,3h1.982C5.548,3,6,3.443,6,4.009v1.982C6,6.548,5.557,7,4.991,7H3.009
		C2.452,7,2,6.557,2,5.991V4.009z"/>
	<path d="M12,4.009C12,3.452,12.443,3,13.009,3h1.982C15.548,3,16,3.443,16,4.009v1.982C16,6.548,15.557,7,14.991,7h-1.982
		C12.452,7,12,6.557,12,5.991V4.009z"/>
	<path d="M22,4.009C22,3.452,22.443,3,23.009,3h1.982C25.548,3,26,3.443,26,4.009v1.982C26,6.548,25.557,7,24.991,7h-1.982
		C22.452,7,22,6.557,22,5.991V4.009z"/>
	<path d="M2,13.009C2,12.452,2.443,12,3.009,12h1.982C5.548,12,6,12.443,6,13.009v1.982C6,15.548,5.557,16,4.991,16H3.009
		C2.452,16,2,15.557,2,14.991V13.009z"/>
	<path d="M12,13.009C12,12.452,12.443,12,13.009,12h1.982C15.548,12,16,12.443,16,13.009v1.982C16,15.548,15.557,16,14.991,16
		h-1.982C12.452,16,12,15.557,12,14.991V13.009z"/>
	<path d="M22,13.009C22,12.452,22.443,12,23.009,12h1.982C25.548,12,26,12.443,26,13.009v1.982C26,15.548,25.557,16,24.991,16
		h-1.982C22.452,16,22,15.557,22,14.991V13.009z"/>
	<path d="M2,22.009C2,21.452,2.443,21,3.009,21h1.982C5.548,21,6,21.443,6,22.009v1.982C6,24.548,5.557,25,4.991,25H3.009
		C2.452,25,2,24.557,2,23.991V22.009z"/>
	<path d="M12,22.009C12,21.452,12.443,21,13.009,21h1.982C15.548,21,16,21.443,16,22.009v1.982C16,24.548,15.557,25,14.991,25
		h-1.982C12.452,25,12,24.557,12,23.991V22.009z"/>
	<path d="M22,22.009C22,21.452,22.443,21,23.009,21h1.982C25.548,21,26,21.443,26,22.009v1.982C26,24.548,25.557,25,24.991,25
		h-1.982C22.452,25,22,24.557,22,23.991V22.009z"/>
</g>
</svg>
