<?xml version="1.0" encoding="utf-8"?>
<!-- Generator: Adobe Illustrator 16.0.0, SVG Export Plug-In . SVG Version: 6.00 Build 0)  -->
<!DOCTYPE svg PUBLIC "-//W3C//DTD SVG 1.1//EN" "http://www.w3.org/Graphics/SVG/1.1/DTD/svg11.dtd">
<svg version="1.1" id="Layer_1" xmlns="http://www.w3.org/2000/svg" xmlns:xlink="http://www.w3.org/1999/xlink" x="0px" y="0px"
	 width="28px" height="28px" viewBox="0 0 28 28" enable-background="new 0 0 28 28" xml:space="preserve">
<path id="SVGID_1_" d="M13.992,26.661c-3.394,0-6.648-1.319-9.071-3.708c-2.424-2.393-3.76-5.571-3.76-8.952
	c0-3.383,1.336-6.562,3.76-8.952c2.424-2.392,5.647-3.709,9.077-3.709c3.428,0,6.65,1.317,9.075,3.709
	c3.153,3.109,4.436,7.528,3.428,11.818c-0.093,0.396-0.497,0.645-0.897,0.554c-0.401-0.093-0.653-0.489-0.561-0.887
	c0.891-3.79-0.241-7.694-3.027-10.442c-4.422-4.36-11.615-4.361-16.036,0c-2.142,2.112-3.321,4.921-3.321,7.909
	c0,2.985,1.18,5.795,3.321,7.908c2.377,2.344,5.662,3.521,9.012,3.231c0.414-0.031,0.773,0.266,0.812,0.672
	c0.034,0.405-0.27,0.765-0.681,0.799C14.745,26.646,14.366,26.661,13.992,26.661"/>
<path id="SVGID_5_" d="M17.045,17.99c0.616-0.975,0.923-2.096,0.923-3.361c0-1.339-0.354-2.417-1.063-3.233
	c-0.709-0.817-1.68-1.227-2.91-1.227c-1.194,0-2.169,0.406-2.923,1.215c-0.753,0.81-1.131,2.002-1.131,3.58
	c0,1.261,0.322,2.323,0.971,3.188c0.646,0.867,1.694,1.301,3.146,1.301C15.434,19.453,16.432,18.965,17.045,17.99z M18.425,10.735
	c0.765,1.008,1.146,2.297,1.146,3.867c0,1.698-0.437,3.112-1.312,4.237c-1.026,1.322-2.489,1.984-4.392,1.984
	c-1.775,0-3.171-0.578-4.187-1.736c-0.906-1.114-1.359-2.524-1.359-4.229c0-1.54,0.388-2.855,1.163-3.953
	c0.994-1.404,2.467-2.107,4.414-2.107C15.936,8.798,17.443,9.443,18.425,10.735z"/>
<path id="SVGID_9_" d="M22.068,21.68c0.869,0,1.572-0.68,1.572-1.516c0-0.838-0.703-1.516-1.572-1.516
	c-0.867,0-1.57,0.678-1.57,1.516C20.498,21,21.201,21.68,22.068,21.68"/>
<path id="SVGID_13_" d="M22.041,22.111c-1.033,0-1.943,0.68-2.512,1.723c-0.379,0.695-0.604,1.553-0.604,2.48
	c0,0.076,0.002,0.153,0.006,0.229h6.221c0.002-0.076,0.005-0.153,0.005-0.229C25.156,23.992,23.762,22.111,22.041,22.111"/>
</svg>
