<?xml version="1.0" encoding="utf-8"?>
<!-- Generator: Adobe Illustrator 16.0.0, SVG Export Plug-In . SVG Version: 6.00 Build 0)  -->
<!DOCTYPE svg PUBLIC "-//W3C//DTD SVG 1.1//EN" "http://www.w3.org/Graphics/SVG/1.1/DTD/svg11.dtd">
<svg version="1.1" id="Layer_1" xmlns="http://www.w3.org/2000/svg" xmlns:xlink="http://www.w3.org/1999/xlink" x="0px" y="0px"
	 width="28px" height="28px" viewBox="0 0 28 28" enable-background="new 0 0 28 28" xml:space="preserve">
<path id="SVGID_65_" d="M13.993,26.55c-3.502,0.002-6.862-1.362-9.361-3.829c-2.502-2.474-3.879-5.759-3.879-9.253
	c0-3.494,1.377-6.78,3.879-9.251c2.502-2.47,5.827-3.831,9.366-3.831c3.538,0,6.863,1.361,9.365,3.831
	c3.253,3.215,4.576,7.78,3.535,12.215l-1.504-0.345c0.918-3.918-0.25-7.951-3.123-10.791c-4.562-4.505-11.985-4.506-16.547,0
	c-2.21,2.183-3.428,5.086-3.428,8.172c0,3.089,1.218,5.99,3.428,8.173c2.452,2.422,5.845,3.642,9.299,3.342l0.136,1.519
	C14.77,26.534,14.38,26.55,13.993,26.55"/>
<path id="SVGID_69_" d="M16.5,10.397c-0.309-0.144-0.729-0.215-1.266-0.215h-2.767v3.538h2.767c0.625,0,1.132-0.132,1.521-0.396
	c0.39-0.264,0.584-0.729,0.584-1.397C17.339,11.177,17.059,10.667,16.5,10.397z M11.067,8.994h4.626
	c0.914,0,1.654,0.256,2.217,0.768c0.562,0.512,0.843,1.231,0.843,2.159c0,0.797-0.251,1.49-0.752,2.082
	c-0.503,0.59-1.271,0.886-2.304,0.886h-3.229v4.317h-1.401V8.994z"/>
<path id="SVGID_73_" d="M24.947,23.627l-3.663-0.197l0.2-3.619c0.006-0.104-0.075-0.194-0.183-0.199
	c-2.231-0.121-4.147,1.574-4.271,3.779s1.595,4.098,3.826,4.219c2.232,0.119,4.147-1.576,4.271-3.781
	C25.136,23.725,25.055,23.632,24.947,23.627"/>
<path id="SVGID_77_" d="M23.168,17.954c-0.105-0.006-0.197,0.075-0.203,0.18l-0.212,3.81c-0.006,0.104,0.075,0.195,0.183,0.201
	l3.855,0.207c0.105,0.008,0.197-0.074,0.203-0.181C27.117,19.967,25.398,18.074,23.168,17.954"/>
</svg>
