<?xml version="1.0" encoding="utf-8"?>
<!-- Generator: Adobe Illustrator 16.0.0, SVG Export Plug-In . SVG Version: 6.00 Build 0)  -->
<!DOCTYPE svg PUBLIC "-//W3C//DTD SVG 1.1//EN" "http://www.w3.org/Graphics/SVG/1.1/DTD/svg11.dtd">
<svg version="1.1" id="Layer_1" xmlns="http://www.w3.org/2000/svg" xmlns:xlink="http://www.w3.org/1999/xlink" x="0px" y="0px"
	 width="28px" height="28px" viewBox="0 0 28 28" enable-background="new 0 0 28 28" xml:space="preserve">
<path id="SVGID_53_" d="M14.072,27.15c-3.57,0-6.995-1.398-9.544-3.93c-2.552-2.531-3.957-5.898-3.957-9.48
	c0-3.584,1.405-6.951,3.957-9.485c2.55-2.531,5.941-3.928,9.548-3.928s6.999,1.396,9.549,3.928
	c3.318,3.296,4.666,7.977,3.605,12.521c-0.098,0.422-0.521,0.684-0.943,0.586c-0.423-0.098-0.688-0.519-0.59-0.938
	c0.937-4.016-0.256-8.152-3.186-11.062c-4.652-4.618-12.22-4.618-16.872,0c-2.253,2.237-3.494,5.212-3.494,8.378
	c0,3.163,1.241,6.139,3.494,8.377c2.501,2.481,5.961,3.731,9.482,3.424c0.437-0.035,0.815,0.28,0.853,0.711
	c0.039,0.431-0.281,0.81-0.716,0.847C14.863,27.133,14.467,27.15,14.072,27.15"/>
<path id="SVGID_57_" d="M16.627,10.252c-0.314-0.146-0.743-0.221-1.289-0.221h-2.822v3.627h2.822c0.637,0,1.152-0.135,1.549-0.406
	c0.396-0.27,0.596-0.748,0.596-1.432C17.48,11.051,17.195,10.527,16.627,10.252z M11.088,8.812h4.719
	c0.932,0,1.686,0.263,2.258,0.788c0.574,0.525,0.859,1.263,0.859,2.212c0,0.818-0.255,1.529-0.768,2.135
	c-0.512,0.605-1.295,0.909-2.35,0.909h-3.292v4.424h-1.428L11.088,8.812L11.088,8.812z"/>
<path id="SVGID_61_" d="M22.627,24.703c-0.825,0-1.496-0.668-1.496-1.486c0-0.82,0.671-1.486,1.496-1.486s1.495,0.666,1.495,1.486
	C24.122,24.035,23.452,24.703,22.627,24.703z M26.927,22.473h-1.067c-0.073-0.293-0.17-0.619-0.291-0.865l0.761-0.754
	c0.035-0.035,0.055-0.082,0.055-0.133c0-0.049-0.02-0.096-0.055-0.131l-1.058-1.051c-0.074-0.072-0.192-0.072-0.267,0l-0.76,0.756
	c-0.249-0.121-0.576-0.215-0.872-0.289v-1.061c0-0.103-0.083-0.187-0.188-0.187h-1.121c-0.104,0-0.188,0.084-0.188,0.187v1.061
	c-0.295,0.074-0.623,0.168-0.872,0.289l-0.76-0.756c-0.073-0.072-0.19-0.072-0.265,0l-1.06,1.051c-0.073,0.072-0.073,0.189,0,0.264
	l0.761,0.754c-0.121,0.246-0.216,0.572-0.291,0.865h-1.066c-0.104,0-0.188,0.084-0.188,0.188v1.112c0,0.104,0.085,0.187,0.188,0.187
	h1.066c0.075,0.293,0.17,0.621,0.291,0.865l-0.761,0.756c-0.034,0.035-0.055,0.082-0.055,0.131s0.021,0.097,0.055,0.131l1.06,1.052
	c0.069,0.069,0.193,0.069,0.265,0l0.76-0.754c0.248,0.118,0.576,0.213,0.872,0.286v1.062c0,0.102,0.084,0.184,0.188,0.184h1.121
	c0.104,0,0.188-0.082,0.188-0.184v-1.062c0.296-0.073,0.624-0.168,0.872-0.286l0.761,0.754c0.072,0.071,0.191,0.071,0.266,0
	l1.058-1.052c0.073-0.071,0.073-0.188,0-0.262l-0.761-0.756c0.121-0.244,0.218-0.572,0.291-0.865h1.066
	c0.104,0,0.188-0.082,0.188-0.187V22.66C27.115,22.557,27.029,22.473,26.927,22.473z"/>
</svg>
