<?xml version="1.0" encoding="utf-8"?>
<!-- Generator: Adobe Illustrator 16.0.0, SVG Export Plug-In . SVG Version: 6.00 Build 0)  -->
<!DOCTYPE svg PUBLIC "-//W3C//DTD SVG 1.1//EN" "http://www.w3.org/Graphics/SVG/1.1/DTD/svg11.dtd">
<svg version="1.1" id="Layer_1" xmlns="http://www.w3.org/2000/svg" xmlns:xlink="http://www.w3.org/1999/xlink" x="0px" y="0px"
	 width="28px" height="28px" viewBox="0 0 28 28" enable-background="new 0 0 28 28" xml:space="preserve">
<g>
	<g>
		<g>
			<defs>
				<path id="SVGID_33_" d="M-62.007,26.78c-3.504,0.001-6.864-1.396-9.364-3.928c-2.504-2.533-3.881-5.9-3.881-9.482
					c0-3.583,1.377-6.95,3.881-9.482c2.502-2.533,5.829-3.929,9.369-3.929c3.539,0,6.866,1.396,9.368,3.929
					c3.256,3.294,4.578,7.974,3.539,12.52l-1.507-0.354c0.92-4.016-0.249-8.15-3.125-11.061c-4.563-4.619-11.988-4.62-16.553,0
					c-2.211,2.236-3.428,5.212-3.428,8.377c0,3.163,1.217,6.139,3.428,8.377c2.453,2.482,5.847,3.732,9.304,3.425l0.135,1.558
					C-61.23,26.764-61.62,26.78-62.007,26.78"/>
			</defs>
			<use xlink:href="#SVGID_33_"  overflow="visible" fill-rule="evenodd" clip-rule="evenodd"/>
			<clipPath id="SVGID_2_">
				<use xlink:href="#SVGID_33_"  overflow="visible"/>
			</clipPath>
			<g clip-path="url(#SVGID_2_)">
				<defs>
					<polygon id="SVGID_35_" points="-88.412,851.1 1177.467,818.498 1177.467,-313.314 -88.412,-280.712 					"/>
				</defs>
				<use xlink:href="#SVGID_35_"  overflow="visible"/>
				<clipPath id="SVGID_4_">
					<use xlink:href="#SVGID_35_"  overflow="visible"/>
				</clipPath>
			</g>
		</g>
	</g>
	<g>
		<g>
			<defs>
				<path id="SVGID_37_" d="M-61.509,13.579c0.638,0,1.145-0.132,1.516-0.398c0.372-0.267,0.559-0.746,0.559-1.439
					c0-0.746-0.261-1.255-0.78-1.525c-0.279-0.143-0.651-0.214-1.116-0.214h-3.328v3.577H-61.509z M-66.061,8.784h4.701
					c0.774,0,1.413,0.116,1.916,0.349c0.953,0.446,1.431,1.271,1.431,2.474c0,0.626-0.128,1.139-0.384,1.538
					s-0.614,0.721-1.073,0.962c0.403,0.167,0.708,0.385,0.911,0.655c0.205,0.271,0.318,0.711,0.342,1.318l0.05,1.404
					c0.013,0.399,0.046,0.696,0.098,0.891c0.085,0.333,0.235,0.547,0.452,0.642v0.235h-1.719c-0.048-0.091-0.084-0.207-0.112-0.35
					s-0.053-0.418-0.071-0.826l-0.084-1.746c-0.031-0.685-0.276-1.143-0.731-1.376c-0.261-0.128-0.669-0.192-1.226-0.192h-3.099
					v4.49h-1.401V8.784z"/>
			</defs>
			<use xlink:href="#SVGID_37_"  overflow="visible" fill-rule="evenodd" clip-rule="evenodd"/>
			<clipPath id="SVGID_6_">
				<use xlink:href="#SVGID_37_"  overflow="visible"/>
			</clipPath>
			<g clip-path="url(#SVGID_6_)">
				<defs>
					<polygon id="SVGID_39_" points="-88.412,851.1 1177.467,818.498 1177.467,-313.314 -88.412,-280.712 					"/>
				</defs>
				<use xlink:href="#SVGID_39_"  overflow="visible"/>
				<clipPath id="SVGID_8_">
					<use xlink:href="#SVGID_39_"  overflow="visible"/>
				</clipPath>
			</g>
		</g>
	</g>
	<g>
		<g>
			<defs>
				<path id="SVGID_41_" d="M-54.305,27.188c-0.466,0-0.844-0.381-0.844-0.852v-5.974c0-0.47,0.378-0.852,0.852-0.852h1.707v2.56
					h2.559v4.272c0,0.467-0.385,0.845-0.845,0.845H-54.305z M-55.149,18.671c-0.471,0-0.853,0.378-0.853,0.848v7.675
					c0,0.468,0.387,0.848,0.851,0.848h5.122c0.47,0,0.851-0.381,0.851-0.851v-6.825l-2.51-1.694H-55.149z"/>
			</defs>
			<use xlink:href="#SVGID_41_"  overflow="visible" fill-rule="evenodd" clip-rule="evenodd"/>
			<clipPath id="SVGID_10_">
				<use xlink:href="#SVGID_41_"  overflow="visible"/>
			</clipPath>
			<g clip-path="url(#SVGID_10_)">
				<defs>
					<polygon id="SVGID_43_" points="-88.412,851.1 1177.467,818.498 1177.467,-313.314 -88.412,-280.712 					"/>
				</defs>
				<use xlink:href="#SVGID_43_"  overflow="visible"/>
				<clipPath id="SVGID_12_">
					<use xlink:href="#SVGID_43_"  overflow="visible"/>
				</clipPath>
			</g>
		</g>
	</g>
	<g>
		<g>
			<defs>
				<rect id="SVGID_45_" x="-54.296" y="24.63" width="3.411" height="0.853"/>
			</defs>
			<use xlink:href="#SVGID_45_"  overflow="visible" fill-rule="evenodd" clip-rule="evenodd"/>
			<clipPath id="SVGID_14_">
				<use xlink:href="#SVGID_45_"  overflow="visible"/>
			</clipPath>
			<g clip-path="url(#SVGID_14_)">
				<defs>
					<polygon id="SVGID_47_" points="-88.412,851.1 1177.467,818.498 1177.467,-313.314 -88.412,-280.712 					"/>
				</defs>
				<use xlink:href="#SVGID_47_"  overflow="visible"/>
				<clipPath id="SVGID_16_">
					<use xlink:href="#SVGID_47_"  overflow="visible"/>
				</clipPath>
			</g>
		</g>
	</g>
	<g>
		<g>
			<defs>
				<rect id="SVGID_49_" x="-54.296" y="22.924" width="3.411" height="0.853"/>
			</defs>
			<use xlink:href="#SVGID_49_"  overflow="visible" fill-rule="evenodd" clip-rule="evenodd"/>
			<clipPath id="SVGID_18_">
				<use xlink:href="#SVGID_49_"  overflow="visible"/>
			</clipPath>
			<g clip-path="url(#SVGID_18_)">
				<defs>
					<polygon id="SVGID_51_" points="-88.412,851.1 1177.467,818.498 1177.467,-313.314 -88.412,-280.712 					"/>
				</defs>
				<use xlink:href="#SVGID_51_"  overflow="visible"/>
				<clipPath id="SVGID_20_">
					<use xlink:href="#SVGID_51_"  overflow="visible"/>
				</clipPath>
			</g>
		</g>
	</g>
</g>
<g>
	<g>
		<g>
			<defs>
				<path id="SVGID_53_" d="M52.072,27.15c-3.57,0-6.995-1.398-9.544-3.93c-2.552-2.531-3.957-5.898-3.957-9.48
					c0-3.584,1.405-6.951,3.957-9.485c2.55-2.531,5.941-3.928,9.548-3.928c3.607,0,6.999,1.396,9.549,3.928
					c3.318,3.296,4.666,7.977,3.606,12.52c-0.098,0.422-0.522,0.684-0.944,0.586c-0.423-0.098-0.688-0.518-0.59-0.938
					c0.937-4.016-0.255-8.152-3.185-11.062c-4.652-4.618-12.22-4.618-16.872,0c-2.253,2.237-3.494,5.212-3.494,8.378
					c0,3.164,1.241,6.139,3.494,8.377c2.501,2.482,5.961,3.732,9.482,3.424c0.436-0.035,0.815,0.281,0.853,0.711
					c0.038,0.43-0.281,0.809-0.716,0.846C52.863,27.133,52.467,27.15,52.072,27.15"/>
			</defs>
			<use xlink:href="#SVGID_53_"  overflow="visible" fill-rule="evenodd" clip-rule="evenodd"/>
			<clipPath id="SVGID_22_">
				<use xlink:href="#SVGID_53_"  overflow="visible"/>
			</clipPath>
			<g clip-path="url(#SVGID_22_)">
				<defs>
					<polygon id="SVGID_55_" points="25.5,805.621 1291.379,773.02 1291.379,-358.792 25.5,-326.19 					"/>
				</defs>
				<use xlink:href="#SVGID_55_"  overflow="visible"/>
				<clipPath id="SVGID_24_">
					<use xlink:href="#SVGID_55_"  overflow="visible"/>
				</clipPath>
			</g>
		</g>
	</g>
	<g>
		<g>
			<defs>
				<path id="SVGID_57_" d="M54.627,10.252c-0.314-0.146-0.743-0.221-1.289-0.221h-2.822v3.627h2.822
					c0.636,0,1.152-0.135,1.549-0.406c0.396-0.27,0.595-0.748,0.595-1.432C55.481,11.051,55.196,10.527,54.627,10.252z
					 M49.088,8.812h4.718c0.932,0,1.686,0.263,2.258,0.788c0.574,0.525,0.86,1.263,0.86,2.212c0,0.818-0.255,1.529-0.768,2.135
					c-0.512,0.605-1.294,0.908-2.349,0.908h-3.292v4.424h-1.428V8.812z"/>
			</defs>
			<use xlink:href="#SVGID_57_"  overflow="visible" fill-rule="evenodd" clip-rule="evenodd"/>
			<clipPath id="SVGID_26_">
				<use xlink:href="#SVGID_57_"  overflow="visible"/>
			</clipPath>
			<g clip-path="url(#SVGID_26_)">
				<defs>
					<polygon id="SVGID_59_" points="25.5,805.621 1291.379,773.02 1291.379,-358.792 25.5,-326.19 					"/>
				</defs>
				<use xlink:href="#SVGID_59_"  overflow="visible"/>
				<clipPath id="SVGID_28_">
					<use xlink:href="#SVGID_59_"  overflow="visible"/>
				</clipPath>
			</g>
		</g>
	</g>
	<g>
		<g>
			<defs>
				<path id="SVGID_61_" d="M60.627,24.703c-0.825,0-1.496-0.668-1.496-1.486c0-0.82,0.671-1.486,1.496-1.486
					s1.495,0.666,1.495,1.486C62.122,24.035,61.452,24.703,60.627,24.703z M64.927,22.473H63.86
					c-0.074-0.293-0.171-0.619-0.291-0.865l0.76-0.754c0.035-0.035,0.055-0.082,0.055-0.133c0-0.049-0.02-0.096-0.055-0.131
					l-1.058-1.051c-0.074-0.072-0.192-0.072-0.266,0l-0.76,0.756c-0.249-0.121-0.576-0.215-0.872-0.289v-1.061
					c0-0.102-0.083-0.186-0.187-0.186h-1.121c-0.104,0-0.188,0.084-0.188,0.186v1.061c-0.295,0.074-0.623,0.168-0.872,0.289
					l-0.76-0.756c-0.073-0.072-0.191-0.072-0.265,0l-1.059,1.051c-0.073,0.072-0.073,0.189,0,0.264l0.761,0.754
					c-0.121,0.246-0.216,0.572-0.291,0.865h-1.067c-0.104,0-0.188,0.084-0.188,0.188v1.113c0,0.104,0.084,0.186,0.188,0.186h1.067
					c0.075,0.293,0.17,0.621,0.291,0.865l-0.761,0.756c-0.034,0.035-0.055,0.082-0.055,0.131s0.021,0.096,0.055,0.131l1.059,1.051
					c0.07,0.07,0.194,0.07,0.265,0l0.76-0.754c0.248,0.119,0.576,0.213,0.872,0.287v1.062c0,0.102,0.084,0.184,0.188,0.184h1.121
					c0.104,0,0.187-0.082,0.187-0.184v-1.062c0.296-0.074,0.624-0.168,0.872-0.287l0.761,0.754c0.072,0.072,0.191,0.072,0.265,0
					l1.058-1.051c0.073-0.072,0.073-0.189,0-0.262l-0.76-0.756c0.12-0.244,0.217-0.572,0.291-0.865h1.066
					c0.104,0,0.188-0.082,0.188-0.186V22.66C65.115,22.557,65.03,22.473,64.927,22.473z"/>
			</defs>
			<use xlink:href="#SVGID_61_"  overflow="visible" fill-rule="evenodd" clip-rule="evenodd"/>
			<clipPath id="SVGID_30_">
				<use xlink:href="#SVGID_61_"  overflow="visible"/>
			</clipPath>
			<g clip-path="url(#SVGID_30_)">
				<defs>
					<polygon id="SVGID_63_" points="25.5,805.621 1291.379,773.02 1291.379,-358.792 25.5,-326.19 					"/>
				</defs>
				<use xlink:href="#SVGID_63_"  overflow="visible"/>
				<clipPath id="SVGID_32_">
					<use xlink:href="#SVGID_63_"  overflow="visible"/>
				</clipPath>
			</g>
		</g>
	</g>
</g>
<path d="M14,0.541C6.269,0.541,0,6.567,0,14c0,7.433,6.269,13.459,14,13.459S28,21.433,28,14C28,6.567,21.731,0.541,14,0.541z
	 M15.007,21.125h-2.284V18.84h2.284V21.125z M18.166,11.337c-0.103,0.337-0.235,0.642-0.399,0.917
	c-0.167,0.273-0.355,0.527-0.565,0.761c-0.214,0.233-0.431,0.461-0.649,0.679c-0.22,0.206-0.437,0.416-0.649,0.628
	c-0.214,0.214-0.405,0.44-0.575,0.681c-0.174,0.239-0.31,0.501-0.413,0.782s-0.153,0.6-0.153,0.957v0.803H13.01v-0.968
	c0.028-0.577,0.134-1.067,0.319-1.473c0.186-0.403,0.411-0.764,0.681-1.08c0.266-0.315,0.547-0.606,0.844-0.874
	c0.294-0.268,0.569-0.549,0.822-0.845c0.254-0.295,0.455-0.621,0.606-0.979c0.151-0.355,0.214-0.788,0.186-1.295
	c-0.056-0.755-0.297-1.346-0.729-1.771c-0.434-0.425-1.02-0.639-1.76-0.639c-0.495,0-0.92,0.089-1.277,0.268
	c-0.355,0.179-0.656,0.419-0.896,0.72c-0.239,0.303-0.416,0.659-0.524,1.072c-0.111,0.412-0.165,0.857-0.165,1.337H9.367
	c-0.016-0.7,0.086-1.352,0.297-1.956c0.213-0.603,0.52-1.129,0.917-1.574s0.886-0.793,1.462-1.039
	c0.576-0.247,1.221-0.371,1.936-0.371c0.643,0,1.23,0.093,1.76,0.278c0.528,0.184,0.983,0.453,1.37,0.803
	c0.383,0.349,0.68,0.779,0.894,1.287c0.213,0.507,0.318,1.09,0.318,1.749C18.32,10.621,18.271,11.002,18.166,11.337z"/>
<g>
	<g>
		<g>
			<defs>
				<path id="SVGID_65_" d="M-24.007,26.55c-3.502,0.002-6.862-1.362-9.361-3.83c-2.502-2.473-3.879-5.758-3.879-9.252
					s1.377-6.779,3.879-9.251c2.502-2.47,5.827-3.831,9.366-3.831c3.538,0,6.863,1.361,9.365,3.831
					c3.253,3.215,4.576,7.78,3.536,12.214l-1.504-0.344c0.918-3.918-0.25-7.951-3.124-10.791c-4.562-4.505-11.985-4.506-16.547,0
					c-2.21,2.183-3.428,5.086-3.428,8.172c0,3.088,1.218,5.99,3.428,8.172c2.452,2.423,5.845,3.642,9.299,3.342l0.136,1.519
					C-23.231,26.534-23.62,26.55-24.007,26.55"/>
			</defs>
			<use xlink:href="#SVGID_65_"  overflow="visible" fill-rule="evenodd" clip-rule="evenodd"/>
			<clipPath id="SVGID_34_">
				<use xlink:href="#SVGID_65_"  overflow="visible"/>
			</clipPath>
			<g clip-path="url(#SVGID_34_)">
				<defs>
					<polygon id="SVGID_67_" points="-50.176,1002.327 1215.703,969.726 1215.703,-162.087 -50.176,-129.485 					"/>
				</defs>
				<use xlink:href="#SVGID_67_"  overflow="visible"/>
				<clipPath id="SVGID_36_">
					<use xlink:href="#SVGID_67_"  overflow="visible"/>
				</clipPath>
			</g>
		</g>
	</g>
	<g>
		<g>
			<defs>
				<path id="SVGID_69_" d="M-21.5,10.397c-0.308-0.144-0.729-0.215-1.265-0.215h-2.767v3.538h2.767c0.624,0,1.131-0.132,1.52-0.396
					c0.389-0.264,0.584-0.729,0.584-1.397C-20.661,11.177-20.941,10.667-21.5,10.397z M-26.933,8.994h4.627
					c0.914,0,1.653,0.256,2.216,0.768c0.562,0.512,0.843,1.231,0.843,2.159c0,0.797-0.251,1.49-0.752,2.082
					c-0.503,0.59-1.27,0.886-2.304,0.886h-3.229v4.317h-1.401V8.994z"/>
			</defs>
			<use xlink:href="#SVGID_69_"  overflow="visible" fill-rule="evenodd" clip-rule="evenodd"/>
			<clipPath id="SVGID_38_">
				<use xlink:href="#SVGID_69_"  overflow="visible"/>
			</clipPath>
			<g clip-path="url(#SVGID_38_)">
				<defs>
					<polygon id="SVGID_71_" points="-50.176,1002.327 1215.703,969.726 1215.703,-162.087 -50.176,-129.485 					"/>
				</defs>
				<use xlink:href="#SVGID_71_"  overflow="visible"/>
				<clipPath id="SVGID_40_">
					<use xlink:href="#SVGID_71_"  overflow="visible"/>
				</clipPath>
			</g>
		</g>
	</g>
	<g>
		<g>
			<defs>
				<path id="SVGID_73_" d="M-13.053,23.627l-3.663-0.198l0.2-3.618c0.006-0.104-0.075-0.195-0.182-0.2
					c-2.232-0.121-4.148,1.574-4.271,3.779c-0.123,2.205,1.595,4.098,3.827,4.219c2.232,0.12,4.147-1.576,4.271-3.781
					C-12.864,23.724-12.946,23.632-13.053,23.627"/>
			</defs>
			<use xlink:href="#SVGID_73_"  overflow="visible" fill-rule="evenodd" clip-rule="evenodd"/>
			<clipPath id="SVGID_42_">
				<use xlink:href="#SVGID_73_"  overflow="visible"/>
			</clipPath>
			<g clip-path="url(#SVGID_42_)">
				<defs>
					<polygon id="SVGID_75_" points="-50.176,1002.327 1215.703,969.726 1215.703,-162.087 -50.176,-129.485 					"/>
				</defs>
				<use xlink:href="#SVGID_75_"  overflow="visible"/>
				<clipPath id="SVGID_44_">
					<use xlink:href="#SVGID_75_"  overflow="visible"/>
				</clipPath>
			</g>
		</g>
	</g>
	<g>
		<g>
			<defs>
				<path id="SVGID_77_" d="M-14.832,17.954c-0.106-0.006-0.198,0.075-0.203,0.18l-0.212,3.809
					c-0.006,0.105,0.075,0.195,0.182,0.201l3.856,0.208c0.106,0.007,0.197-0.075,0.203-0.181
					C-10.883,19.967-12.601,18.074-14.832,17.954"/>
			</defs>
			<use xlink:href="#SVGID_77_"  overflow="visible" fill-rule="evenodd" clip-rule="evenodd"/>
			<clipPath id="SVGID_46_">
				<use xlink:href="#SVGID_77_"  overflow="visible"/>
			</clipPath>
			<g clip-path="url(#SVGID_46_)">
				<defs>
					<polygon id="SVGID_79_" points="-50.176,1002.327 1215.703,969.726 1215.703,-162.087 -50.176,-129.485 					"/>
				</defs>
				<use xlink:href="#SVGID_79_"  overflow="visible"/>
				<clipPath id="SVGID_48_">
					<use xlink:href="#SVGID_79_"  overflow="visible"/>
				</clipPath>
			</g>
		</g>
	</g>
</g>
</svg>
