<?xml version="1.0" encoding="utf-8"?>
<!-- Generator: Adobe Illustrator 16.0.0, SVG Export Plug-In . SVG Version: 6.00 Build 0)  -->
<!DOCTYPE svg PUBLIC "-//W3C//DTD SVG 1.1//EN" "http://www.w3.org/Graphics/SVG/1.1/DTD/svg11.dtd">
<svg version="1.1" id="Layer_1" xmlns="http://www.w3.org/2000/svg" xmlns:xlink="http://www.w3.org/1999/xlink" x="0px" y="0px"
	 width="28px" height="28px" viewBox="0 0 28 28" enable-background="new 0 0 28 28" xml:space="preserve">
<path id="SVGID_33_" d="M13.993,26.779c-3.504,0.002-6.864-1.396-9.364-3.928c-2.504-2.533-3.881-5.899-3.881-9.481
	c0-3.583,1.377-6.95,3.881-9.482c2.502-2.533,5.829-3.929,9.369-3.929c3.539,0,6.866,1.396,9.368,3.929
	c3.256,3.294,4.577,7.974,3.538,12.52l-1.506-0.354c0.92-4.017-0.25-8.151-3.125-11.062c-4.563-4.619-11.988-4.62-16.553,0
	c-2.21,2.236-3.427,5.212-3.427,8.377c0,3.163,1.217,6.139,3.428,8.377c2.453,2.481,5.847,3.731,9.304,3.425l0.135,1.559
	C14.77,26.764,14.38,26.779,13.993,26.779"/>
<path id="SVGID_37_" d="M14.491,13.579c0.638,0,1.145-0.132,1.516-0.398c0.372-0.267,0.56-0.746,0.56-1.439
	c0-0.746-0.262-1.255-0.78-1.525c-0.279-0.143-0.651-0.214-1.116-0.214h-3.328v3.577L14.491,13.579L14.491,13.579z M9.939,8.784
	h4.702c0.773,0,1.412,0.116,1.916,0.349c0.952,0.446,1.43,1.271,1.43,2.474c0,0.626-0.127,1.139-0.383,1.538
	s-0.614,0.721-1.074,0.962c0.404,0.167,0.709,0.385,0.912,0.655c0.205,0.271,0.317,0.711,0.342,1.318l0.05,1.404
	c0.013,0.398,0.046,0.695,0.099,0.891c0.084,0.333,0.234,0.547,0.451,0.643v0.234h-1.719c-0.048-0.091-0.084-0.207-0.112-0.35
	c-0.028-0.144-0.053-0.418-0.071-0.826l-0.084-1.746c-0.03-0.686-0.275-1.143-0.73-1.376c-0.262-0.128-0.669-0.192-1.226-0.192
	h-3.099v4.49H9.939V8.784z"/>
<path id="SVGID_41_" d="M21.695,27.188c-0.467,0-0.844-0.381-0.844-0.852v-5.975c0-0.469,0.377-0.852,0.852-0.852h1.707v2.561h2.559
	v4.271c0,0.467-0.385,0.846-0.845,0.846H21.695L21.695,27.188z M20.852,18.671c-0.472,0-0.854,0.378-0.854,0.849v7.674
	c0,0.469,0.387,0.849,0.852,0.849h5.121c0.471,0,0.852-0.381,0.852-0.851v-6.825l-2.51-1.694L20.852,18.671L20.852,18.671z"/>
<rect id="SVGID_45_" x="21.704" y="24.63" width="3.411" height="0.853"/>
<rect id="SVGID_49_" x="21.704" y="22.924" width="3.411" height="0.854"/>
</svg>
