<?xml version="1.0" encoding="utf-8"?>
<!-- Generator: Adobe Illustrator 16.0.0, SVG Export Plug-In . SVG Version: 6.00 Build 0)  -->
<!DOCTYPE svg PUBLIC "-//W3C//DTD SVG 1.1//EN" "http://www.w3.org/Graphics/SVG/1.1/DTD/svg11.dtd">
<svg version="1.1" id="Layer_1" xmlns="http://www.w3.org/2000/svg" xmlns:xlink="http://www.w3.org/1999/xlink" x="0px" y="0px"
	 width="28px" height="28px" viewBox="0 0 28 28" enable-background="new 0 0 28 28" xml:space="preserve">
<path id="SVGID_17_" d="M0.747,13.489c0-4.318,2.077-8.318,5.763-10.875c1.509-1.047,3.243-1.76,5.056-2.078
	c4.418-0.777,8.731,0.592,11.802,3.643c3.059,3.039,4.409,7.28,3.698,11.481c-0.073,0.439-0.502,0.73-0.938,0.632
	c-0.389-0.09-0.655-0.462-0.588-0.854c0.754-4.4-1.054-8.853-4.896-11.531c-1.426-0.995-3.08-1.648-4.803-1.908
	c-4.224-0.639-8.303,0.936-10.968,4.2c-1.342,1.642-2.208,3.637-2.48,5.734c-0.478,3.677,0.75,7.22,3.327,9.781
	c2.284,2.271,5.385,3.49,8.595,3.403c0.401-0.013,0.739,0.3,0.774,0.698c0.037,0.442-0.312,0.824-0.76,0.836
	c-3.624,0.091-7.121-1.289-9.701-3.853C2.126,20.312,0.747,17.006,0.747,13.489"/>
<path id="SVGID_21_" d="M21.689,23.562c0-0.318-0.258-0.573-0.576-0.573s-0.576,0.255-0.576,0.573v2.162l-2.6-2.582
	c-0.226-0.224-0.59-0.224-0.814,0c-0.113,0.111-0.17,0.26-0.17,0.406s0.057,0.292,0.17,0.404l2.596,2.579H17.67
	c-0.32,0-0.576,0.258-0.576,0.573c0,0.316,0.256,0.572,0.576,0.572h3.443c0.318,0,0.576-0.256,0.576-0.572
	c0-0.021-0.004-0.041-0.006-0.062c0.002-0.021,0.006-0.041,0.006-0.062V23.562"/>
<path id="SVGID_25_" d="M20.559,21.464c0,0.315,0.258,0.573,0.576,0.573c0.32,0,0.576-0.258,0.576-0.573v-2.163l2.6,2.582
	c0.226,0.223,0.59,0.223,0.814,0c0.113-0.111,0.17-0.259,0.17-0.406c0-0.146-0.057-0.291-0.17-0.404l-2.596-2.579h2.051
	c0.316,0,0.576-0.259,0.576-0.572c0-0.317-0.26-0.575-0.576-0.575h-3.445c-0.318,0-0.576,0.258-0.576,0.575
	c0,0.021,0.004,0.04,0.006,0.062c-0.002,0.02-0.006,0.039-0.006,0.062V21.464"/>
<polyline id="SVGID_29_" points="18.203,8.979 18.203,10.203 14.719,10.203 14.719,19.256 13.304,19.256 13.304,10.203 
	9.818,10.203 9.818,8.979 18.203,8.979 "/>
</svg>
