<?xml version="1.0" encoding="utf-8"?>
<!-- Generator: Adobe Illustrator 16.0.0, SVG Export Plug-In . SVG Version: 6.00 Build 0)  -->
<!DOCTYPE svg PUBLIC "-//W3C//DTD SVG 1.1//EN" "http://www.w3.org/Graphics/SVG/1.1/DTD/svg11.dtd">
<svg version="1.1" id="Layer_1" xmlns="http://www.w3.org/2000/svg" xmlns:xlink="http://www.w3.org/1999/xlink" x="0px" y="0px"
	 width="28px" height="28px" viewBox="0 0 28 28" enable-background="new 0 0 28 28" xml:space="preserve">
<g>
	<path d="M26.42,27.634H1.58V24.73c0-1.956,1.227-3.709,3.052-4.36l5.512-2.045v-2.79c-1.988-1.448-3.314-4.031-3.314-6.97
		c0-4.521,3.14-8.199,6.999-8.199s7,3.678,7,8.199c0,2.767-1.176,5.219-2.974,6.704v3.057l5.483,2.049
		c1.838,0.656,3.081,2.408,3.081,4.355V27.634z M3.58,25.634h20.84V24.73c0-1.087-0.727-2.105-1.767-2.478l-6.798-2.538V16.82
		l-3.711,0.15v2.745l-6.828,2.533C4.273,22.622,3.58,23.617,3.58,24.73V25.634z M13.829,2.366c-2.756,0-4.999,2.781-4.999,6.199
		c0,3.419,2.243,6.2,4.999,6.2c2.757,0,5-2.781,5-6.2C18.829,5.147,16.586,2.366,13.829,2.366z"/>
</g>
</svg>
